<svg width="80" height="81" viewBox="0 0 80 81" fill="none" xmlns="http://www.w3.org/2000/svg">
<path d="M78.4914 37.0994L43.5626 2.17191C41.5523 0.160308 38.2898 0.160308 36.2769 2.17191L29.0238 9.42517L38.2248 18.6263C40.3629 17.9038 42.8148 18.3885 44.5191 20.0929C46.2317 21.8082 46.7129 24.2811 45.9729 26.4261L54.8401 35.2938C56.9854 34.5547 59.4607 35.0328 61.1742 36.7491C63.5689 39.1429 63.5689 43.0227 61.1742 45.418C58.7789 47.8137 54.8992 47.8137 52.5026 45.418C50.7013 43.6149 50.2563 40.9695 51.1682 38.7504L42.8988 30.4809L42.8979 52.2428C43.4974 52.5392 44.0449 52.9308 44.5191 53.4022C46.9138 55.796 46.9138 59.6761 44.5191 62.0733C42.1238 64.4678 38.2423 64.4678 35.8504 62.0733C33.4557 59.6761 33.4557 55.7963 35.8504 53.4025C36.4243 52.8284 37.1063 52.3737 37.8569 52.0647V30.0999C37.1052 29.793 36.4228 29.3381 35.8504 28.7621C34.036 26.9502 33.5998 24.2879 34.5294 22.0601L25.4594 12.989L1.50938 36.9379C-0.503126 38.9513 -0.503126 42.2142 1.50938 44.2261L36.4388 79.1543C38.4498 81.1662 41.7116 81.1662 43.7251 79.1543L78.4911 44.3883C80.503 42.3758 80.503 39.111 78.4911 37.0994" fill="#DE4C36"/>
</svg>
