<svg width="80" height="80" viewBox="0 0 80 80" fill="none" xmlns="http://www.w3.org/2000/svg">
<path d="M0 28.9524C0 18.8181 0 13.751 1.97226 9.88017C3.70711 6.47533 6.47533 3.70711 9.88017 1.97226C13.751 0 18.8181 0 28.9524 0H51.0476C61.1819 0 66.249 0 70.1198 1.97226C73.5247 3.70711 76.2929 6.47533 78.0277 9.88017C80 13.751 80 18.8181 80 28.9524V51.0476C80 61.1819 80 66.249 78.0277 70.1198C76.2929 73.5247 73.5247 76.2929 70.1198 78.0277C66.249 80 61.1819 80 51.0476 80H28.9524C18.8181 80 13.751 80 9.88017 78.0277C6.47533 76.2929 3.70711 73.5247 1.97226 70.1198C0 66.249 0 61.1819 0 51.0476V28.9524Z" fill="#00005B"/>
<path d="M17.1429 56.5591V20.5942C17.1429 20.3495 17.2432 20.2097 17.4772 20.2097C20.9321 20.2097 24.3855 20 27.8414 20C33.449 20 39.5208 21.9544 41.6491 27.9339C42.1506 29.4019 42.4181 30.9048 42.4181 32.4776C42.4181 35.4834 41.7494 37.965 40.4121 39.9223C36.6765 45.3897 30.2017 45.3048 24.3978 45.3048V56.5241C24.4432 56.8563 24.1655 57.0134 23.8963 57.0134H17.5441C17.2766 57.0134 17.1429 56.8736 17.1429 56.5591ZM24.4312 26.9553V38.699C26.7325 38.8708 29.1406 38.8894 31.3518 38.1397C33.7929 37.422 35.1297 35.2682 35.1297 32.6873C35.1976 30.4882 34.0219 28.3781 32.0205 27.5844C29.836 26.6586 26.7893 26.6031 24.4312 26.9553Z" fill="#9999FF"/>
<path d="M46.9501 29.1769H52.8173C53.1409 29.1799 53.4313 29.4135 53.517 29.7397C53.947 30.7377 53.9999 31.9413 54.0015 33.0188C55.0076 31.7941 56.221 30.7736 57.5808 30.0084C59.0394 29.1456 60.6928 28.7083 62.3684 28.7423C62.6465 28.7007 62.8926 28.958 62.8529 29.2487V36.0576C62.8529 36.3205 62.6728 36.4515 62.3147 36.4515C59.8313 36.2723 55.9649 36.8857 54.1604 38.9274V56.6315C54.1604 56.9692 54.0168 57.138 53.7297 57.138H47.4346C47.1253 57.1844 46.8526 56.8934 46.8962 56.5752V37.3518C46.8962 34.7759 46.9496 32.1225 46.5733 29.5709C46.5154 29.3361 46.7304 29.1178 46.9501 29.1769Z" fill="#9999FF"/>
</svg>
