<svg width="54" height="81" viewBox="0 0 54 81" fill="none" xmlns="http://www.w3.org/2000/svg">
<path d="M26.6696 40.6629C26.6696 33.2992 32.639 27.3296 40.0028 27.3296C47.3664 27.3296 53.336 33.2992 53.336 40.6629C53.336 48.0267 47.3664 53.9962 40.0028 53.9962C32.639 53.9962 26.6696 48.0267 26.6696 40.6629Z" fill="#1ABCFE"/>
<path d="M0 67.3298C0 59.9661 5.96945 53.9965 13.3332 53.9965H26.6663V67.3298C26.6663 74.6936 20.6969 80.6631 13.3332 80.6631C5.96945 80.6631 0 74.6936 0 67.3298Z" fill="#0ACF83"/>
<path d="M26.6696 0.663086V27.3296H40.0028C47.3666 27.3296 53.336 21.3601 53.336 13.9964C53.336 6.63261 47.3666 0.663086 40.0028 0.663086H26.6696Z" fill="#FF7262"/>
<path d="M0 13.9964C0 21.3602 5.96945 27.3296 13.3332 27.3296H26.6663V0.663086H13.3332C5.96945 0.663086 0 6.6326 0 13.9964Z" fill="#F24E1E"/>
<path d="M0 40.6629C0 48.0267 5.96945 53.9962 13.3332 53.9962H26.6663V27.3296H13.3332C5.96945 27.3296 0 33.2992 0 40.6629Z" fill="#A259FF"/>
</svg>
