<svg width="34" height="32" viewBox="0 0 34 32" fill="none" xmlns="http://www.w3.org/2000/svg">
<path fill-rule="evenodd" clip-rule="evenodd" d="M16.5654 0C7.40517 0 0 7.3333 0 16.4056C0 23.6576 4.74475 29.7962 11.327 31.9689C12.1499 32.1322 12.4514 31.6159 12.4514 31.1815C12.4514 30.8012 12.4242 29.4975 12.4242 28.1392C7.81614 29.1172 6.85654 26.1836 6.85654 26.1836C6.11599 24.2822 5.01872 23.7936 5.01872 23.7936C3.5105 22.7886 5.12859 22.7886 5.12859 22.7886C6.80161 22.8972 7.67949 24.4726 7.67949 24.4726C9.16025 26.9712 11.5464 26.2652 12.5063 25.8306C12.6433 24.7712 13.0824 24.0379 13.5486 23.6306C9.87334 23.2502 6.00647 21.8379 6.00647 15.5363C6.00647 13.7436 6.66428 12.2769 7.70661 11.1363C7.54216 10.729 6.96606 9.04463 7.87141 6.79031C7.87141 6.79031 9.27011 6.35564 12.4239 8.4743C13.7741 8.11519 15.1666 7.93251 16.5654 7.93097C17.9641 7.93097 19.39 8.1213 20.7066 8.4743C23.8607 6.35564 25.2594 6.79031 25.2594 6.79031C26.1648 9.04463 25.5883 10.729 25.4239 11.1363C26.4937 12.2769 27.1244 13.7436 27.1244 15.5363C27.1244 21.8379 23.2575 23.2229 19.5548 23.6306C20.1583 24.1466 20.6791 25.1242 20.6791 26.6726C20.6791 28.8725 20.652 30.6382 20.652 31.1812C20.652 31.6159 20.9538 32.1322 21.7764 31.9692C28.3586 29.7959 33.1034 23.6576 33.1034 16.4056C33.1305 7.3333 25.6982 0 16.5654 0Z" fill="#fff"/>
</svg>
