<svg width="80" height="80" viewBox="0 0 80 80" fill="none" xmlns="http://www.w3.org/2000/svg">
<path d="M80 0H0V80H80V0Z" fill="#F7DF1E"/>
<path d="M53.6718 62.3089C55.2805 64.9725 57.3734 66.9302 61.0749 66.9302C64.1844 66.9302 66.1709 65.3542 66.1709 63.1766C66.1709 60.5671 64.1299 59.6428 60.7073 58.1247L58.8312 57.3084C53.4158 54.9688 49.8182 52.0379 49.8182 45.8419C49.8182 40.1344 54.1066 35.7894 60.8087 35.7894C65.5801 35.7894 69.0104 37.4734 71.4823 41.8826L65.6384 45.6876C64.3518 43.3481 62.9637 42.4264 60.8087 42.4264C58.6106 42.4264 57.2174 43.8404 57.2174 45.6876C57.2174 47.9707 58.6119 48.8949 61.8317 50.309L63.7078 51.1239C70.0841 53.8967 73.6842 56.7235 73.6842 63.0789C73.6842 69.9306 68.3766 73.6842 61.2486 73.6842C54.279 73.6842 49.7763 70.3162 47.5732 65.9019L53.6718 62.3089ZM27.1615 62.9684C28.3404 65.0894 29.4128 66.8827 31.9912 66.8827C34.4568 66.8827 36.0122 65.9044 36.0122 62.1007V36.2239H43.5167V62.2035C43.5167 70.0835 38.9607 73.67 32.3106 73.67C26.302 73.67 22.8223 70.5167 21.0526 66.7188L27.1615 62.9684Z" fill="black"/>
</svg>
