<svg width="80" height="86" viewBox="0 0 80 86" fill="none" xmlns="http://www.w3.org/2000/svg">
<path d="M40 49.7757C43.8565 49.7757 46.9828 46.6668 46.9828 42.8318C46.9828 38.9967 43.8565 35.8878 40 35.8878C36.1436 35.8878 33.0173 38.9967 33.0173 42.8318C33.0173 46.6668 36.1436 49.7757 40 49.7757Z" fill="#61DAFB"/>
<path fill-rule="evenodd" clip-rule="evenodd" d="M7.16733 39.1778C5.58383 40.5993 5.06334 41.8387 5.06334 42.8315C5.06334 43.8243 5.58383 45.0637 7.16733 46.4852C8.74975 47.9058 11.1824 49.301 14.4046 50.5244C20.831 52.9645 29.8797 54.5265 40 54.5265C50.1203 54.5265 59.169 52.9645 65.5954 50.5244C68.8176 49.301 71.2502 47.9058 72.8327 46.4852C74.4162 45.0637 74.9367 43.8243 74.9367 42.8315C74.9367 41.8387 74.4162 40.5993 72.8327 39.1778C71.2502 37.7573 68.8176 36.362 65.5954 35.1386C59.169 32.6985 50.1203 31.1366 40 31.1366C29.8797 31.1366 20.831 32.6985 14.4046 35.1386C11.1824 36.362 8.74975 37.7573 7.16733 39.1778ZM12.6072 30.405C19.7417 27.6961 29.4271 26.0732 40 26.0732C50.5729 26.0732 60.2583 27.6961 67.3928 30.405C70.9511 31.7561 74.0055 33.4264 76.2151 35.41C78.4236 37.3925 80 39.8957 80 42.8315C80 45.7673 78.4236 48.2705 76.2151 50.2531C74.0055 52.2366 70.9511 53.907 67.3928 55.2581C60.2583 57.967 50.5729 59.5898 40 59.5898C29.4271 59.5898 19.7417 57.967 12.6072 55.2581C9.04891 53.907 5.99448 52.2366 3.78491 50.2531C1.57641 48.2705 0 45.7673 0 42.8315C0 39.8957 1.57641 37.3925 3.78491 35.41C5.99448 33.4264 9.04891 31.7561 12.6072 30.405Z" fill="#61DAFB"/>
<path fill-rule="evenodd" clip-rule="evenodd" d="M26.7859 12.7341C24.7588 12.082 23.4123 12.2501 22.5369 12.7527C21.6616 13.2553 20.8419 14.3309 20.3962 16.4027C19.9506 18.4747 19.9519 21.2655 20.4971 24.65C21.5847 31.4008 24.7474 39.9711 29.806 48.6843C34.8647 57.3974 40.747 64.4063 46.0822 68.7184C48.757 70.8803 51.1867 72.2767 53.214 72.9289C55.2411 73.5811 56.5876 73.4129 57.463 72.9104C58.3383 72.4078 59.158 71.3322 59.6037 69.2603C60.0493 67.1883 60.048 64.3976 59.5027 61.0131C58.4151 54.2623 55.2525 45.6919 50.1938 36.9788C45.1352 28.2656 39.2529 21.2567 33.9177 16.9447C31.2429 14.7828 28.8132 13.3863 26.7859 12.7341ZM37.1094 13.0245C43.0387 17.8167 49.297 25.3496 54.5849 34.4577C59.8729 43.5658 63.3038 52.7219 64.5125 60.2244C65.1154 63.9666 65.188 67.4342 64.5652 70.33C63.9423 73.2259 62.5511 75.8275 60.0052 77.2892C57.4593 78.7509 54.4981 78.6482 51.6647 77.7367C48.8315 76.8252 45.8479 75.0289 42.8905 72.6386C36.9612 67.8464 30.7029 60.3135 25.415 51.2054C20.127 42.0973 16.6961 32.9411 15.4873 25.4386C14.8844 21.6965 14.8119 18.2288 15.4347 15.3331C16.0576 12.4372 17.4487 9.83557 19.9946 8.37386C22.5406 6.91214 25.5018 7.01487 28.3351 7.9264C31.1684 8.83788 34.1519 10.6342 37.1094 13.0245Z" fill="#61DAFB"/>
<path fill-rule="evenodd" clip-rule="evenodd" d="M59.6037 16.4026C59.1581 14.3307 58.3384 13.2551 57.463 12.7526C56.5877 12.25 55.2411 12.0818 53.214 12.734C51.1867 13.3862 48.757 14.7827 46.0822 16.9445C40.747 21.2566 34.8647 28.2655 29.8061 36.9786C24.7474 45.6918 21.5848 54.2621 20.4972 61.0129C19.9519 64.3974 19.9506 67.1882 20.3963 69.2602C20.8419 71.3321 21.6616 72.4076 22.5369 72.9102C23.4123 73.4128 24.7588 73.5809 26.7859 72.9288C28.8132 72.2766 31.2429 70.8801 33.9177 68.7183C39.2529 64.4062 45.1352 57.3973 50.1939 48.6841C55.2525 39.971 58.4152 31.4006 59.5028 24.6498C60.0481 21.2653 60.0494 18.4746 59.6037 16.4026ZM64.5126 25.4385C63.3039 32.941 59.8729 42.0971 54.5849 51.2052C49.297 60.3134 43.0387 67.8462 37.1094 72.6384C34.152 75.0287 31.1684 76.825 28.3352 77.7365C25.5018 78.648 22.5406 78.7508 19.9947 77.2891C17.4488 75.8273 16.0576 73.2257 15.4348 70.3298C14.8119 67.4341 14.8845 63.9664 15.4874 60.2243C16.6961 52.7218 20.127 43.5656 25.415 34.4575C30.703 25.3494 36.9612 17.8166 42.8905 13.0243C45.848 10.634 48.8315 8.83773 51.6648 7.92625C54.4981 7.01472 57.4594 6.91199 60.0053 8.3737C62.5512 9.83541 63.9423 12.437 64.5652 15.3329C65.188 18.2287 65.1155 21.6963 64.5126 25.4385Z" fill="#61DAFB"/>
</svg>
