<svg width="79" height="80" viewBox="0 0 79 80" fill="none" xmlns="http://www.w3.org/2000/svg">
<path d="M78.7156 11.8408L41.6162 78.9557C40.8501 80.3415 38.8822 80.3496 38.1048 78.9707L0.269841 11.8471C-0.57731 10.3446 0.6928 8.52438 2.376 8.829L39.5152 15.5446C39.7522 15.5874 39.9948 15.587 40.2316 15.5434L76.594 8.83836C78.2717 8.52907 79.5476 10.3352 78.7156 11.8408Z" fill="url(#paint0_linear_37_5077)"/>
<path d="M57.2064 0.0196966L29.752 5.46223C29.5326 5.50571 29.3338 5.62171 29.1867 5.79199C29.0396 5.96227 28.9526 6.17718 28.9394 6.40293L27.2507 35.2592C27.2414 35.4174 27.2687 35.5757 27.3304 35.7214C27.3921 35.8671 27.4866 35.9963 27.6063 36.0986C27.726 36.201 27.8676 36.2737 28.0199 36.311C28.1722 36.3483 28.3311 36.3491 28.4838 36.3135L36.1276 34.5288C36.8427 34.3619 37.489 34.9992 37.3418 35.7267L35.0709 46.9773C34.9182 47.7344 35.6207 48.3817 36.3515 48.157L41.0729 46.706C41.8047 46.4813 42.508 47.1305 42.3532 47.8883L38.7443 65.5602C38.5185 66.6656 39.9718 67.2683 40.5777 66.3208L40.9828 65.6878L63.3543 20.5196C63.7291 19.7633 63.0828 18.901 62.2622 19.0614L54.3938 20.5976C53.6546 20.7418 53.0256 20.0452 53.2341 19.3136L58.3695 1.3034C58.5783 0.569943 57.9468 -0.126994 57.2067 0.0196966H57.2064Z" fill="url(#paint1_linear_37_5077)"/>
<defs>
<linearGradient id="paint0_linear_37_5077" x1="-0.653929" y1="14.2439" x2="39.9621" y2="68.7672" gradientUnits="userSpaceOnUse">
<stop stop-color="#41D1FF"/>
<stop offset="1" stop-color="#BD34FE"/>
</linearGradient>
<linearGradient id="paint1_linear_37_5077" x1="42.9573" y1="1.49745" x2="51.3778" y2="58.5928" gradientUnits="userSpaceOnUse">
<stop stop-color="#FFEA83"/>
<stop offset="0.083" stop-color="#FFDD35"/>
<stop offset="1" stop-color="#FFA800"/>
</linearGradient>
</defs>
</svg>
