<svg width="78" height="81" viewBox="0 0 78 81" fill="none" xmlns="http://www.w3.org/2000/svg">
<path d="M5.15999 4.1127L49.525 0.845527C54.9728 0.37824 56.3747 0.691253 59.7988 3.17878L73.9606 13.1326C76.2974 14.8444 77.0762 15.3104 77.0762 17.1763V71.77C77.0762 75.1914 75.8298 77.2148 71.4722 77.5244L19.9517 80.6356C16.6806 80.7917 15.1238 80.3253 13.4108 78.1467L2.9818 64.6151C1.11308 62.1245 0.335968 60.2609 0.335968 58.0808V9.55439C0.335968 6.75641 1.58264 4.42253 5.15999 4.1127Z" fill="white"/>
<path fill-rule="evenodd" clip-rule="evenodd" d="M49.525 0.845527L5.15999 4.1127C1.58264 4.42253 0.335968 6.75641 0.335968 9.55439V58.0808C0.335968 60.2609 1.11308 62.1245 2.9818 64.6151L13.4108 78.1467C15.1238 80.3253 16.6806 80.7917 19.9517 80.6356L71.4722 77.5244C75.8298 77.2148 77.0762 75.1914 77.0762 71.77V17.1763C77.0762 15.4077 76.3764 14.8967 74.3136 13.3906C74.2 13.3078 74.0825 13.2219 73.9606 13.1326L59.7988 3.17878C56.3747 0.691253 54.9728 0.37824 49.525 0.845527ZM21.1199 16.2808C16.9135 16.5649 15.9577 16.6294 13.569 14.6888L7.49449 9.86736C6.87494 9.2439 7.18568 8.46616 8.74115 8.31191L51.393 5.20091C54.9722 4.88917 56.8398 6.13548 58.2414 7.22369L65.5568 12.5124C65.8683 12.6673 66.6452 13.5993 65.7109 13.5993L21.6628 16.2443C21.4774 16.2567 21.2977 16.2688 21.1237 16.2806L21.1205 16.2808L21.1199 16.2808ZM16.2136 71.3024V24.9545C16.2136 22.933 16.8363 21.9991 18.7032 21.8421L69.291 18.888C71.0067 18.7325 71.7836 19.8219 71.7836 21.8421V67.8789C71.7836 69.9025 71.4716 71.6158 68.6687 71.77L20.2599 74.5709C17.4583 74.725 16.2136 73.7933 16.2136 71.3024ZM64.0027 27.4406C64.3131 28.8419 64.0027 30.2418 62.599 30.3993L60.2665 30.8641V65.081C58.2414 66.1696 56.3741 66.7917 54.8179 66.7917C52.3265 66.7917 51.7024 66.0135 49.8362 63.6817L34.5795 39.7297V62.9041L39.4073 63.9936C39.4073 63.9936 39.4073 66.7917 35.5122 66.7917L24.7745 67.4148C24.4624 66.7917 24.7745 65.2377 25.8637 64.9263L28.6657 64.1497V33.5091L24.7751 33.1973C24.463 31.796 25.2402 29.7759 27.421 29.6189L38.9401 28.8425L54.8179 53.1064V31.6417L50.7697 31.1771C50.4589 29.4642 51.7024 28.2203 53.2591 28.0662L64.0027 27.4406Z" fill="#000008"/>
</svg>
