<svg width="71" height="80" viewBox="0 0 71 80" fill="none" xmlns="http://www.w3.org/2000/svg">
<path d="M70.5399 0L64.1136 71.9916L35.2268 80L6.41956 72.0029L0 0H70.5399Z" fill="#264DE4"/>
<path d="M58.612 67.4076L64.1037 5.88745H35.27V73.8789L58.612 67.4076Z" fill="#2965F1"/>
<path d="M14.7166 32.592L15.5081 41.4228H35.2699V32.592H14.7166Z" fill="#EBEBEB"/>
<path d="M35.2699 14.7181H35.2394H13.1263L13.9291 23.5491H35.2699V14.7181Z" fill="#EBEBEB"/>
<path d="M35.2699 64.7147V55.5269L35.2312 55.5372L25.3962 52.8815L24.7675 45.8385H19.9885H15.9027L17.1399 59.7042L35.2293 64.726L35.2699 64.7147Z" fill="#EBEBEB"/>
<path d="M46.1137 41.4228L45.0886 52.8757L35.2394 55.5341V64.7215L53.3432 59.7041L53.476 58.2121L55.5512 34.9634L55.7666 32.592L57.3609 14.7181H35.2394V23.5491H47.683L46.8795 32.592H35.2394V41.4228H46.1137Z" fill="white"/>
</svg>
