<svg width="81" height="81" viewBox="0 0 81 81" fill="none" xmlns="http://www.w3.org/2000/svg">
<path d="M17.143 51.2171C17.143 55.8425 13.3646 59.621 8.73946 59.621C4.11428 59.621 0.335968 55.8425 0.335968 51.2171C0.335968 46.5917 4.11428 42.8132 8.73946 42.8132H17.143V51.2171Z" fill="#E01E5A"/>
<path d="M21.3752 51.2172C21.3752 46.5918 25.1536 42.8133 29.7787 42.8133C34.4039 42.8133 38.1822 46.5918 38.1822 51.2172V72.2596C38.1822 76.8849 34.4039 80.6634 29.7787 80.6634C25.1536 80.6634 21.3752 76.8849 21.3752 72.2596V51.2172Z" fill="#E01E5A"/>
<path d="M29.7787 17.4709C25.1536 17.4709 21.3752 13.6924 21.3752 9.06698C21.3752 4.44158 25.1536 0.663086 29.7787 0.663086C34.4039 0.663086 38.1822 4.44158 38.1822 9.06698V17.4709H29.7787Z" fill="#36C5F0"/>
<path d="M29.7808 21.7054C34.406 21.7054 38.1843 25.4839 38.1843 30.1093C38.1843 34.7347 34.406 38.5132 29.7808 38.5132H8.73946C4.11428 38.5132 0.335968 34.7347 0.335968 30.1093C0.335968 25.4839 4.11428 21.7054 8.73946 21.7054H29.7808Z" fill="#36C5F0"/>
<path d="M63.5264 30.1092C63.5264 25.4838 67.3047 21.7053 71.9299 21.7053C76.5551 21.7053 80.3334 25.4838 80.3334 30.1092C80.3334 34.7346 76.5551 38.5131 71.9299 38.5131H63.5264V30.1092Z" fill="#2EB67D"/>
<path d="M59.2941 30.1093C59.2941 34.7347 55.5158 38.5132 50.8906 38.5132C46.2654 38.5132 42.4871 34.7347 42.4871 30.1093V9.06698C42.4871 4.44158 46.2654 0.663086 50.8906 0.663086C55.5158 0.663086 59.2941 4.44158 59.2941 9.06698V30.1093Z" fill="#2EB67D"/>
<path d="M50.8906 63.8558C55.5158 63.8558 59.2941 67.6343 59.2941 72.2597C59.2941 76.8851 55.5158 80.6636 50.8906 80.6636C46.2654 80.6636 42.4871 76.8851 42.4871 72.2597V63.8558H50.8906Z" fill="#ECB22E"/>
<path d="M50.8906 59.6213C46.2654 59.6213 42.4871 55.8428 42.4871 51.2174C42.4871 46.592 46.2654 42.8135 50.8906 42.8135H71.9319C76.5571 42.8135 80.3354 46.592 80.3354 51.2174C80.3354 55.8428 76.5571 59.6213 71.9319 59.6213H50.8906Z" fill="#ECB22E"/>
</svg>
