<svg width="80" height="79" viewBox="0 0 80 79" fill="none" xmlns="http://www.w3.org/2000/svg">
<path d="M65.8333 0.663208H14.1667C6.34263 0.663208 0 7.00618 0 14.8306V64.5C0 72.3244 6.34263 78.6674 14.1667 78.6674H65.8333C73.6574 78.6674 80 72.3244 80 64.5V14.8306C80 7.00618 73.6574 0.663208 65.8333 0.663208Z" fill="#330000"/>
<path d="M38.765 47.4775H26.3681L23.8458 55.3133C23.8114 55.4562 23.7282 55.5826 23.6107 55.6708C23.4931 55.759 23.3485 55.8034 23.2017 55.7964H16.9227C16.5647 55.7964 16.4394 55.5996 16.5471 55.206L27.2803 24.2923C27.3877 23.9703 27.4951 23.6036 27.6024 23.1921C27.7428 22.476 27.8147 21.7482 27.8171 21.0185C27.8098 20.9675 27.8145 20.9155 27.8308 20.8666C27.8471 20.8176 27.8746 20.7732 27.911 20.7368C27.9475 20.7003 27.9919 20.6728 28.0408 20.6565C28.0897 20.6402 28.1417 20.6355 28.1928 20.6428H36.7256C36.9756 20.6428 37.1188 20.7322 37.155 20.9112L49.3375 55.2596C49.4447 55.6177 49.3373 55.7966 49.0154 55.7963H42.0386C41.9188 55.8096 41.7983 55.7788 41.6995 55.7097C41.6007 55.6405 41.5305 55.5378 41.502 55.4207L38.765 47.4775ZM28.3 40.7152H36.7794C36.5647 39.9999 36.3142 39.1949 36.0281 38.3C35.7413 37.4061 35.4372 36.449 35.1158 35.4287C34.7937 34.409 34.4716 33.3893 34.1496 32.3696C33.8277 31.3499 33.5326 30.3659 33.2642 29.4177C32.9958 28.4702 32.7544 27.6025 32.5398 26.8148H32.4861C32.1839 28.2643 31.8078 29.6973 31.3591 31.1083C30.8576 32.7184 30.3478 34.3643 29.8295 36.0459C29.3105 37.7282 28.8006 39.2846 28.3 40.7152Z" fill="#FF9A00"/>
<path d="M56.5912 26.3319C56.0438 26.3539 55.498 26.2601 54.9893 26.0567C54.4807 25.8532 54.0207 25.5446 53.6395 25.1512C53.2593 24.7407 52.9641 24.2591 52.7706 23.7341C52.5772 23.2091 52.4894 22.6511 52.5124 22.0921C52.4929 21.5386 52.5904 20.9872 52.7984 20.4739C53.0065 19.9606 53.3205 19.497 53.7199 19.1134C54.1155 18.7337 54.5824 18.4362 55.0936 18.2382C55.6049 18.0401 56.1503 17.9454 56.6984 17.9595C57.9865 17.9595 58.9973 18.3441 59.7307 19.1134C60.1009 19.5131 60.3886 19.982 60.5774 20.4931C60.7661 21.0043 60.8522 21.5476 60.8308 22.0921C60.8532 22.6533 60.7626 23.2133 60.5644 23.7388C60.3662 24.2643 60.0644 24.7446 59.6769 25.1512C59.272 25.5504 58.7887 25.8614 58.2577 26.0646C57.7266 26.2679 57.1592 26.3589 56.5912 26.3319ZM52.8881 55.2598V29.6057C52.8881 29.2838 53.0306 29.1227 53.3174 29.1227H59.9185C60.2045 29.1227 60.3476 29.2837 60.3478 29.6057V55.2598C60.3478 55.6179 60.2047 55.7968 59.9185 55.7965H53.3711C53.0492 55.7965 52.8882 55.6176 52.8881 55.2598Z" fill="#FF9A00"/>
</svg>
