<svg width="80" height="79" viewBox="0 0 80 79" fill="none" xmlns="http://www.w3.org/2000/svg">
<path d="M65.8333 0.663208H14.1667C6.34263 0.663208 0 7.00618 0 14.8306V64.5C0 72.3244 6.34263 78.6674 14.1667 78.6674H65.8333C73.6574 78.6674 80 72.3244 80 64.5V14.8306C80 7.00618 73.6574 0.663208 65.8333 0.663208Z" fill="#001E36"/>
<path d="M18.0117 55.3629V21.0681C18.0117 20.8182 18.1191 20.6924 18.3338 20.6924C18.9056 20.6924 19.4277 20.684 20.2151 20.6656C21.0017 20.648 21.8515 20.6301 22.7643 20.6119C23.6767 20.5943 24.6428 20.5764 25.6624 20.5582C26.6819 20.5406 27.6926 20.5317 28.6944 20.5314C31.413 20.5314 33.7028 20.8713 35.5637 21.5511C37.2424 22.119 38.7733 23.054 40.045 24.2882C41.123 25.358 41.9561 26.649 42.4868 28.072C42.9888 29.4568 43.2432 30.9193 43.2382 32.3924C43.2382 35.2553 42.5763 37.6168 41.2526 39.4767C39.92 41.3444 38.047 42.7586 35.8859 43.5288C33.6318 44.3699 31.1271 44.6552 28.3725 44.6552C27.5851 44.6552 27.0305 44.6462 26.7088 44.6283C26.3868 44.6106 25.9039 44.6017 25.2599 44.6014V55.3093C25.2693 55.3749 25.2632 55.4418 25.2422 55.5047C25.2213 55.5676 25.186 55.6247 25.1391 55.6716C25.0922 55.7184 25.0351 55.7537 24.9722 55.7747C24.9093 55.7957 24.8424 55.8017 24.7768 55.7923H18.3874C18.1367 55.7923 18.0117 55.6497 18.0117 55.3629ZM25.2599 27.1327V38.3183C25.7244 38.3544 26.1537 38.3723 26.5478 38.372H28.3188C29.6219 38.3676 30.9164 38.161 32.156 37.7594C33.2192 37.4435 34.1693 36.8288 34.893 35.9883C35.5906 35.1656 35.9395 34.0207 35.9396 32.5534C35.9679 31.5153 35.6977 30.4908 35.1612 29.6015C34.5973 28.7417 33.7822 28.0765 32.8268 27.6963C31.5793 27.2114 30.2468 26.9832 28.9091 27.0255C28.0504 27.0255 27.2901 27.0344 26.6284 27.0522C25.9659 27.0707 25.5098 27.0976 25.2599 27.1327Z" fill="#31A8FF"/>
<path d="M63.9886 36.2835C62.98 35.7652 61.9059 35.3861 60.7954 35.1564C59.5719 34.8756 58.3209 34.7316 57.0656 34.727C56.3866 34.7086 55.7085 34.79 55.0531 34.9685C54.6359 35.0614 54.2651 35.2991 54.0065 35.6394C53.8316 35.9116 53.7385 36.2282 53.7383 36.5518C53.7481 36.8657 53.8613 37.1675 54.0602 37.4105C54.3737 37.7772 54.7568 38.0782 55.1872 38.296C55.9524 38.7081 56.7408 39.0755 57.5485 39.3963C59.3497 39.9992 61.0707 40.8192 62.6737 41.8382C63.7657 42.5275 64.6693 43.4772 65.3034 44.6022C65.8366 45.6674 66.1036 46.8461 66.0816 48.0371C66.1137 49.6098 65.6643 51.1547 64.7937 52.4648C63.8615 53.7947 62.5668 54.8286 61.0637 55.4434C59.4353 56.1588 57.4228 56.5166 55.0262 56.5169C53.5038 56.5323 51.9839 56.3883 50.4914 56.0875C49.3155 55.8719 48.1708 55.5113 47.0835 55.0141C46.9662 54.9535 46.8686 54.8608 46.802 54.7467C46.7355 54.6326 46.7028 54.502 46.7079 54.37V48.5737C46.7014 48.517 46.7105 48.4596 46.7341 48.4076C46.7578 48.3556 46.7951 48.311 46.8421 48.2786C46.8882 48.2525 46.9412 48.2411 46.9939 48.2459C47.0466 48.2507 47.0966 48.2715 47.1372 48.3054C48.4212 49.0626 49.8154 49.6148 51.2696 49.9423C52.5513 50.2636 53.866 50.4347 55.1872 50.4522C56.4392 50.4522 57.3604 50.2912 57.951 49.9692C58.2177 49.8471 58.4433 49.6503 58.6005 49.4026C58.7577 49.155 58.8397 48.8671 58.8366 48.5737C58.8366 48.1092 58.5683 47.662 58.0316 47.232C57.495 46.8027 56.4037 46.2838 54.7579 45.6756C53.0728 45.089 51.475 44.2766 50.0083 43.2605C48.9593 42.5309 48.0955 41.5659 47.486 40.4428C46.9583 39.3852 46.6914 38.2166 46.7079 37.0348C46.7049 35.6148 47.095 34.2216 47.8348 33.0096C48.6785 31.6749 49.8899 30.6126 51.3233 29.9504C52.8972 29.1638 54.865 28.7703 57.2266 28.7697C58.6097 28.7586 59.9915 28.8573 61.359 29.0649C62.3492 29.1905 63.3173 29.4524 64.2358 29.8431C64.3087 29.864 64.3757 29.9015 64.4316 29.9528C64.4874 30.004 64.5306 30.0675 64.5578 30.1383C64.5941 30.2693 64.6121 30.4048 64.6115 30.5408V35.9614C64.6152 36.0245 64.6023 36.0874 64.574 36.1439C64.5458 36.2005 64.5032 36.2486 64.4505 36.2834C64.3788 36.3191 64.2997 36.3377 64.2196 36.3377C64.1394 36.3377 64.0604 36.3191 63.9886 36.2835Z" fill="#31A8FF"/>
</svg>
